<?xml version="1.0" standalone="no"?>
<!DOCTYPE svg PUBLIC "-//W3C//DTD SVG 20010904//EN"
 "http://www.w3.org/TR/2001/REC-SVG-20010904/DTD/svg10.dtd">
<svg version="1.0" xmlns="http://www.w3.org/2000/svg"
 width="500.000000pt" height="500.000000pt" viewBox="0 0 500.000000 500.000000"
 preserveAspectRatio="xMidYMid meet">

<g transform="translate(0.000000,500.000000) scale(0.100000,-0.100000)"
fill="#000000" stroke="none">
<path d="M3142 2568 l3 -473 238 -3 c131 -1 252 2 270 7 22 6 -47 9 -220 10
l-253 1 0 465 c0 459 0 465 -20 465 -20 0 -20 -5 -18 -472z"/>
<path d="M1405 3021 c-12 -5 12 -10 70 -15 49 -3 94 -11 99 -16 6 -6 18 -10
28 -10 10 0 18 -4 18 -10 0 -5 6 -10 13 -10 36 -1 109 -98 132 -178 12 -39 20
-52 35 -52 17 0 19 5 13 33 -23 124 -105 216 -223 251 -56 17 -151 20 -185 7z"/>
<path d="M3649 2972 c-20 -29 -25 -45 -21 -76 4 -36 6 -38 34 -32 17 3 34 6
39 6 4 0 20 16 35 35 24 32 25 37 11 53 -9 9 -28 24 -44 34 -28 16 -28 16 -54
-20z"/>
<path d="M2172 2941 c-79 -77 -112 -188 -112 -377 0 -196 27 -279 120 -375 92
-94 203 -130 348 -112 l67 8 -100 5 c-84 5 -111 11 -167 37 -118 56 -197 160
-218 289 -13 77 -13 262 0 343 12 69 44 140 85 190 37 43 26 39 -23 -8z"/>
<path d="M3476 2947 c-34 -45 -33 -58 10 -85 27 -18 43 -21 71 -16 34 6 35 8
29 43 -5 32 -55 90 -78 91 -4 0 -18 -15 -32 -33z"/>
<path d="M1146 2930 c-35 -39 -86 -131 -86 -156 0 -7 -7 -20 -16 -29 -15 -14
-16 -33 -10 -143 7 -133 21 -230 38 -272 54 -127 148 -216 256 -242 58 -13
180 -19 187 -8 2 4 -29 10 -70 12 -137 9 -263 97 -321 222 -32 70 -48 201 -41
341 6 130 25 194 78 264 46 61 36 68 -15 11z"/>
<path d="M2471 2841 c-10 -6 -2 -11 28 -16 49 -8 93 -55 101 -107 l5 -33 114
-3 c69 -2 118 1 125 8 7 7 -23 10 -97 10 -101 0 -107 1 -107 20 0 34 -27 87
-52 104 -29 19 -99 30 -117 17z"/>
<path d="M3672 2823 c-25 -3 -32 -8 -28 -20 3 -8 6 -25 6 -37 0 -16 13 -32 39
-49 l39 -26 20 22 c11 12 25 32 31 44 10 20 7 25 -26 48 -21 14 -40 24 -43 23
-3 0 -20 -3 -38 -5z"/>
<path d="M3545 2803 c-11 -2 -33 -22 -48 -43 l-28 -39 43 -31 43 -31 27 33
c28 33 33 55 22 96 -6 21 -16 24 -59 15z"/>
<path d="M1424 2557 c-2 -7 -3 -98 -2 -201 2 -141 6 -190 16 -194 9 -3 12 42
12 202 0 135 -4 206 -10 206 -6 0 -13 -6 -16 -13z"/>
<path d="M1663 2523 l117 -4 0 -62 c0 -68 -24 -146 -60 -197 -30 -43 -19 -48
15 -8 46 54 77 134 83 210 l5 68 -139 -2 -139 -2 118 -3z"/>
<path d="M3702 2490 c-22 -29 -28 -74 -14 -97 15 -23 76 -4 100 31 29 42 28
47 -11 74 -43 29 -49 28 -75 -8z"/>
<path d="M3526 2462 c-14 -21 -26 -41 -26 -45 0 -4 17 -18 38 -31 28 -18 46
-23 75 -19 28 4 37 9 33 20 -3 8 -6 25 -6 37 0 16 -13 32 -40 50 -22 14 -41
26 -43 26 -3 0 -16 -17 -31 -38z"/>
<path d="M2607 2443 c-4 -3 -7 -19 -7 -35 0 -16 -5 -39 -11 -51 -10 -20 -9
-20 15 3 30 30 47 90 24 90 -8 0 -18 -3 -21 -7z"/>
<path d="M3718 2343 c-33 -8 -23 -61 19 -99 20 -19 40 -34 44 -34 8 0 59 73
59 86 0 14 -67 54 -87 53 -10 -1 -26 -3 -35 -6z"/>
<path d="M3602 2323 c-22 -4 -72 -60 -72 -81 0 -11 61 -52 78 -52 6 0 22 15
35 33 19 25 23 41 20 70 -5 38 -9 40 -61 30z"/>
</g>
</svg>
